<?xml version="1.0" standalone="no"?>
<!DOCTYPE svg PUBLIC "-//W3C//DTD SVG 20010904//EN"
 "http://www.w3.org/TR/2001/REC-SVG-20010904/DTD/svg10.dtd">
<svg version="1.0" xmlns="http://www.w3.org/2000/svg"
 width="1600.000000pt" height="900.000000pt" viewBox="0 0 1600.000000 900.000000"
 preserveAspectRatio="xMidYMid meet">

<g transform="translate(0.000000,900.000000) scale(0.100000,-0.100000)"
fill="#000000" stroke="none">
<path d="M6070 6028 c-25 -5 -62 -7 -82 -6 -21 2 -38 1 -38 -2 0 -3 13 -28 29
-56 37 -63 83 -89 148 -81 43 5 76 25 94 59 7 13 2 25 -18 48 -34 38 -74 49
-133 38z"/>
<path d="M8952 6012 c-15 -15 -43 -46 -63 -69 l-37 -42 33 -11 c43 -14 76 -5
110 30 25 27 49 95 39 112 -11 18 -57 7 -82 -20z m33 -19 c-22 -21 -44 -38
-48 -38 -13 0 -26 -27 -20 -42 3 -8 -2 -13 -16 -13 -12 0 -21 3 -21 6 0 3 23
32 51 65 33 37 60 59 73 59 18 0 15 -6 -19 -37z m21 -42 c-9 -17 -26 -36 -39
-42 -20 -11 -21 -11 -8 4 7 10 10 17 5 17 -4 0 5 13 21 30 34 36 42 33 21 -9z"/>
<path d="M8979 5943 c-13 -16 -12 -17 4 -4 16 13 21 21 13 21 -2 0 -10 -8 -17
-17z"/>
<path d="M8256 5484 c-9 -20 -14 -39 -11 -42 3 -3 6 1 6 9 1 8 4 1 8 -16 6
-27 7 -25 17 28 12 65 5 73 -20 21z"/>
<path d="M6597 5490 c54 -22 56 -89 9 -272 -19 -73 -53 -182 -75 -243 -22 -60
-39 -111 -37 -112 2 -2 14 11 28 29 64 87 99 138 95 138 -3 0 -22 -23 -42 -50
-21 -28 -39 -49 -41 -47 -2 2 10 44 27 93 48 141 89 314 89 377 0 61 -22 98
-57 96 -14 0 -13 -2 4 -9z"/>
<path d="M6528 5463 c-15 -16 -32 -41 -37 -56 -24 -64 -3 -147 37 -147 13 0
13 3 -5 15 -45 31 -36 118 18 180 37 41 25 48 -13 8z"/>
<path d="M8451 5423 c-16 -36 -93 -344 -87 -350 3 -3 10 15 15 38 25 101 70
266 80 292 6 15 16 27 22 27 20 0 3 -137 -27 -220 -14 -41 -40 -100 -56 -130
-17 -30 -22 -46 -13 -35 66 79 140 319 116 378 -13 34 -34 35 -50 0z"/>
<path d="M8575 4834 c-11 -2 -57 -11 -103 -20 -45 -9 -81 -19 -78 -21 2 -2 38
3 80 11 41 9 107 16 145 16 38 0 73 5 76 10 6 10 -76 12 -120 4z"/>
<path d="M6444 4758 c-42 -20 -55 -78 -29 -127 24 -48 77 -55 122 -17 22 19
28 32 28 66 0 68 -61 108 -121 78z m90 -50 c16 -46 -3 -82 -44 -86 -38 -4 -60
16 -60 56 0 45 18 63 58 60 30 -2 38 -8 46 -30z"/>
<path d="M6630 4680 c0 -53 4 -90 10 -90 6 0 10 28 10 65 0 36 4 65 8 65 5 0
27 -29 50 -65 23 -36 46 -65 52 -65 6 0 10 34 10 90 0 53 -4 90 -10 90 -6 0
-10 -31 -10 -72 l0 -73 -46 73 c-62 98 -74 96 -74 -18z"/>
<path d="M6850 4683 l0 -93 45 0 c25 0 45 5 45 10 0 6 -16 10 -35 10 l-35 0 0
68 c0 37 -5 74 -10 82 -7 10 -10 -14 -10 -77z"/>
<path d="M8165 4759 c-32 -19 -45 -41 -45 -79 0 -66 52 -104 110 -80 49 20 69
110 32 143 -24 22 -72 30 -97 16z m67 -26 c27 -24 24 -87 -4 -107 -30 -21 -44
-20 -68 4 -38 38 -13 120 37 120 9 0 25 -7 35 -17z"/>
<path d="M8365 4745 c-54 -53 -18 -155 55 -155 19 0 40 9 55 25 54 53 18 155
-55 155 -19 0 -40 -9 -55 -25z m83 -11 c16 -11 22 -25 22 -53 0 -61 -46 -86
-86 -46 -31 31 -31 59 1 90 28 29 33 30 63 9z"/>
<path d="M8560 4680 l0 -90 50 0 c28 0 50 5 50 10 0 6 -16 10 -35 10 l-35 0 0
80 c0 64 -3 80 -15 80 -12 0 -15 -17 -15 -90z"/>
<path d="M6239 4660 c-6 -37 7 -127 25 -165 35 -74 157 -148 189 -116 8 8 6
11 -7 11 -16 0 -56 34 -56 47 0 2 18 -6 40 -17 22 -11 40 -25 40 -31 0 -6 5
-7 11 -3 7 4 2 14 -14 28 -13 11 -37 38 -52 59 -15 20 -34 37 -41 37 -8 0 -14
7 -14 15 0 8 -5 15 -11 15 -6 0 -9 14 -6 33 2 24 -2 36 -19 50 -28 22 -34 22
-34 -3 0 -20 0 -20 -19 -1 -11 11 -21 30 -23 43 l-4 23 -5 -25z"/>
<path d="M8524 4231 c35 -5 38 -7 23 -20 -10 -7 -17 -20 -17 -28 0 -8 -4 -11
-10 -8 -5 3 -10 -1 -10 -9 0 -9 5 -16 12 -16 6 0 9 -2 7 -5 -3 -2 -20 -1 -37
4 -30 9 -44 0 -22 -14 6 -4 32 -39 59 -79 77 -113 133 -150 194 -127 25 10 27
15 27 63 0 62 -23 117 -73 174 -45 51 -92 74 -149 73 l-43 -2 39 -6z"/>
</g>
</svg>
